<?xml version="1.0" encoding="UTF-8"?>
<svg xmlns="http://www.w3.org/2000/svg" version="1.1" viewBox="0 0 59 56">
  <defs>
    <style>
      .cls-1 {
        stroke: #edc0ce;
        stroke-miterlimit: 10;
      }

      .cls-1, .cls-2 {
        fill: #fff;
      }

      .cls-3 {
        fill: #ecb3c5;
      }
    </style>
  </defs>
  <!-- Generator: Adobe Illustrator 28.7.2, SVG Export Plug-In . SVG Version: 1.2.0 Build 154)  -->
  <g>
    <g id="Layer_1">
      <path class="cls-1" d="M52.8,25v25c0,2.9-2.5,5.2-5.5,5.2H11.5c-3,0-5.5-2.3-5.5-5.2v-25L29.4,3.6l23.4,21.4Z"/>
      <path class="cls-2" d="M23,21.2"/>
      <path class="cls-3" d="M41.2,33c1-.5,1.3-1.5,1.3-2.6,0-1.7-1.5-3-3.3-3s-3.3,1.3-3.3,3h-12.9c0-1.7-1.5-3-3.3-3s-3.3,1.3-3.3,3,.3,2.1,1.3,2.6c-1,.5-1.3,1.5-1.3,2.6,0,1.7,1.5,3,3.3,3s3.3-1.3,3.3-3h12.9c0,1.7,1.5,3,3.3,3s3.3-1.3,3.3-3-.3-2.1-1.3-2.6Z"/>
      <path class="cls-3" d="M28,1.3L1.8,21.5c-.8.6-1.1,1.5-.9,2.5h0c.2.9.9,1.6,1.7,1.8h.5c.7.4,1.6.2,2.2-.3L28,7.8c.9-.7,2.1-.7,3,0l22.7,17.7c.6.5,1.4.6,2.2.4h.5c.9-.4,1.5-1.1,1.7-2h0c.2-.9,0-1.9-.9-2.5L31,1.3c-.9-.7-2.1-.7-3,0Z"/>
    </g>
  </g>
</svg>